<?xml version="1.0" encoding="UTF-8" standalone="no"?>
<svg
   xmlns:dc="http://purl.org/dc/elements/1.1/"
   xmlns:cc="http://creativecommons.org/ns#"
   xmlns:rdf="http://www.w3.org/1999/02/22-rdf-syntax-ns#"
   xmlns:svg="http://www.w3.org/2000/svg"
   xmlns="http://www.w3.org/2000/svg"
   xmlns:sodipodi="http://sodipodi.sourceforge.net/DTD/sodipodi-0.dtd"
   xmlns:inkscape="http://www.inkscape.org/namespaces/inkscape"
   viewBox="0 0 48 48"
   version="1.1"
   id="svg5"
   sodipodi:docname="discord_online_new.svg"
   inkscape:version="1.0.1 (3bc2e813f5, 2020-09-07)">
  <defs
     id="defs9" />
  <sodipodi:namedview
     pagecolor="#ffffff"
     bordercolor="#666666"
     borderopacity="1"
     objecttolerance="10"
     gridtolerance="10"
     guidetolerance="10"
     inkscape:pageopacity="0"
     inkscape:pageshadow="2"
     inkscape:window-width="2560"
     inkscape:window-height="1309"
     id="namedview7"
     showgrid="false"
     inkscape:zoom="21"
     inkscape:cx="24"
     inkscape:cy="23.952381"
     inkscape:window-x="0"
     inkscape:window-y="27"
     inkscape:window-maximized="1"
     inkscape:current-layer="svg5"
     inkscape:document-rotation="0" />
  <path
     d="m 40.047619,12.044544 c 0,0 -4.586,-3.59 -10,-4 l -0.488,0.977 c 4.894,1.199 7.14,2.913 9.488,5.023 -4.047,-2.066 -8.04,-4 -15,-4 -6.96,0 -10.953,1.934 -15,4 2.348,-2.11 5.02,-4.016 9.488,-5.023 l -0.488,-0.977 c -5.68,0.535 -10,4 -10,4 0,0 -5.121,7.426 -6,22 5.16,5.953 13,6 13,6 l 1.64,-2.184 c -2.784,-0.968 -5.924,-2.695 -8.64,-5.816 3.238,2.45 8.125,5 16,5 7.875,0 12.762,-2.55 16,-5 -2.715,3.121 -5.855,4.848 -8.64,5.816 l 1.64,2.184 c 0,0 7.84,-0.047 13,-6 -0.879,-14.574 -6,-22 -6,-22 z m -22.5,18 c -1.934,0 -3.5,-1.79 -3.5,-4 0,-2.21 1.566,-4 3.5,-4 1.934,0 3.5,1.79 3.5,4 0,2.21 -1.566,4 -3.5,4 z m 13,0 c -1.934,0 -3.5,-1.79 -3.5,-4 0,-2.21 1.566,-4 3.5,-4 1.934,0 3.5,1.79 3.5,4 0,2.21 -1.566,4 -3.5,4 z"
     fill="#8c9eff"
     id="surface1"
     style="fill:#7289da;fill-opacity:1" />
  <metadata
     id="metadata3">
    <rdf:RDF>
      <rdf:Description
         about="https://iconscout.com/legal#licenses"
         dc:title="discord"
         dc:description="discord"
         dc:publisher="Iconscout"
         dc:date="2017-12-15"
         dc:format="image/svg+xml"
         dc:language="en">
        <dc:creator>
          <rdf:Bag>
            <rdf:li>Icons8</rdf:li>
          </rdf:Bag>
        </dc:creator>
      </rdf:Description>
      <cc:Work
         rdf:about="">
        <dc:format>image/svg+xml</dc:format>
        <dc:type
           rdf:resource="http://purl.org/dc/dcmitype/StillImage" />
      </cc:Work>
    </rdf:RDF>
  </metadata>
  <circle
     style="fill:#00ff00"
     id="path834"
     cx="37.927265"
     cy="35.760456"
     r="7.9115167" />
</svg>
